# xmcd
#
# Track frame offsets:
#	150
#	22330
#	36646
#	62616
#	86071
#	108481
#	123089
#	136331
#	154241
#	192649
#
# Disc length: 3293 seconds
#
# Revision: 0
# Processed by: cddbd v1.5.1PL0 Copyright (c) Steve Scherf et al.
# Submitted via: dBpowerAMP V4.0
#
DISCID=920cdb0a
DTITLE=please send me someone to love - The Wright Feeling (1)
DYEAR=1900
DGENRE=Blues
TTITLE0=Please Send Me Someone to Love
TTITLE1=Evelyn
TTITLE2=My Funny Valentine
TTITLE3=Why Did I Choose You
TTITLE4=Summertime
TTITLE5=The Preacher
TTITLE6=John Brown's Body
TTITLE7=Watermelon Man
TTITLE8=Blue Monk
TTITLE9=DATA
EXTD=
EXTT0=
EXTT1=
EXTT2=
EXTT3=
EXTT4=
EXTT5=
EXTT6=
EXTT7=
EXTT8=
EXTT9=
PLAYORDER=
